# xmcd CD database file
#
# Track frame offsets:
#	150
#	42285
#	86485
#	105208
#	122446
#	135450
#	152849
#	195979
#	211618
#	231190
#	245871
#	266038
#	279957
#	298817
#	311326
#
# Disc length: 4569 seconds
#
# Revision: 1
# Processed by: cddbd v1.5.2PL0 Copyright (c) Steve Scherf et al.
# Submitted via: CDex 1.70beta2
#
DISCID=c711d70f
DTITLE=Dizzy Gillespie - Jazz Roads CD372 - Bebop - The Boppers In Europe Vol.3 (1953)
DYEAR=1900
DGENRE=Jazz
TTITLE0=The Champ
TTITLE1=Good Bait
TTITLE2=Swing Low Sweet Cadillac
TTITLE3=Oh Lady Be Good
TTITLE4=My Man (Mon Homme)
TTITLE5=(I've Got) The Bluest Blues
TTITLE6=Birk's Works
TTITLE7=Ooh-Shoo-Bee-Doo-Bee
TTITLE8=They Can't Take That Away From Me
TTITLE9=Embraceable You
TTITLE10=Play Fiddle, Play
TTITLE11=I Can't Get Started
TTITLE12=Tin Tin Deo
TTITLE13=On The Sunny Side Of The Street
TTITLE14=School Days
EXTD=
EXTT0=
EXTT1=
EXTT2=
EXTT3=
EXTT4=
EXTT5=
EXTT6=
EXTT7=
EXTT8=
EXTT9=
EXTT10=
EXTT11=
EXTT12=
EXTT13=
EXTT14=
PLAYORDER=
